<svg xmlns="http://www.w3.org/2000/svg" viewBox="0 0 400 400" role="img" aria-label="카페라떼">
  <rect width="400" height="400" rx="32" fill="#E7D3B5"/>
  <g fill="none" stroke="#FFFFFF" stroke-width="8" stroke-linecap="round" opacity="0.7">
    <path d="M170 96 q-18 -22 0 -44"/><path d="M205 96 q-18 -22 0 -44"/><path d="M240 96 q-18 -22 0 -44"/>
  </g>
  <ellipse cx="200" cy="318" rx="120" ry="22" fill="#C6AC82"/>
  <path d="M118 150 h164 l-16 150 a16 16 0 0 1 -16 14 h-84 a16 16 0 0 1 -16 -14 z" fill="#FBF7F0"/>
  <ellipse cx="200" cy="160" rx="82" ry="20" fill="#C79A6B"/>
  <path d="M200 148 q-26 6 0 24 q26 -6 0 -24 z" fill="#FBF7F0" opacity="0.95"/>
  <path d="M286 175 a44 44 0 0 1 0 88" fill="none" stroke="#FBF7F0" stroke-width="20"/>
</svg>
