<svg xmlns="http://www.w3.org/2000/svg" viewBox="0 0 400 400" role="img" aria-label="카페모카">
  <rect width="400" height="400" rx="32" fill="#D8C3A6"/>
  <g fill="none" stroke="#FFFFFF" stroke-width="8" stroke-linecap="round" opacity="0.7">
    <path d="M170 96 q-18 -22 0 -44"/><path d="M205 96 q-18 -22 0 -44"/><path d="M240 96 q-18 -22 0 -44"/>
  </g>
  <ellipse cx="200" cy="318" rx="120" ry="22" fill="#BFA37C"/>
  <path d="M118 150 h164 l-16 150 a16 16 0 0 1 -16 14 h-84 a16 16 0 0 1 -16 -14 z" fill="#FBF7F0"/>
  <ellipse cx="200" cy="160" rx="82" ry="20" fill="#5A3A24"/>
  <ellipse cx="200" cy="150" rx="66" ry="18" fill="#FBF3E6"/>
  <g stroke="#5A3A24" stroke-width="3" fill="none" opacity="0.85"><path d="M162 150 q12 6 24 0 q12 -6 24 0 q12 6 24 0"/></g>
  <path d="M286 175 a44 44 0 0 1 0 88" fill="none" stroke="#FBF7F0" stroke-width="20"/>
</svg>
