<svg xmlns="http://www.w3.org/2000/svg" viewBox="0 0 400 400" role="img" aria-label="청포도에이드">
  <rect width="400" height="400" rx="32" fill="#ECF7D0"/>
  <path d="M150 110 h100 l-12 200 a16 16 0 0 1 -16 14 h-44 a16 16 0 0 1 -16 -14 z" fill="#FFFFFF" opacity="0.30"/>
  <path d="M156 150 h88 l-10 160 a14 14 0 0 1 -14 12 h-40 a14 14 0 0 1 -14 -12 z" fill="#C6E36B"/>
  <rect x="236" y="70" width="12" height="150" rx="6" fill="#FFFFFF" opacity="0.85" transform="rotate(12 242 145)"/>
  <g fill="#FFFFFF" opacity="0.65"><circle cx="180" cy="190" r="6"/><circle cx="212" cy="220" r="5"/><circle cx="190" cy="250" r="4"/><circle cx="206" cy="285" r="6"/></g>
  <circle cx="248" cy="120" r="24" fill="#AFD84B"/>
  <circle cx="248" cy="120" r="24" fill="none" stroke="#FFFFFF" stroke-width="4"/>
</svg>
