<svg xmlns="http://www.w3.org/2000/svg" viewBox="0 0 400 400" role="img" aria-label="라떼">
  <rect width="400" height="400" rx="32" fill="#E8D9C0"/>
  <g fill="none" stroke="#FFFFFF" stroke-width="8" stroke-linecap="round" opacity="0.6">
    <path d="M180 96 q-16 -20 0 -40"/>
    <path d="M220 96 q-16 -20 0 -40"/>
  </g>
  <ellipse cx="200" cy="318" rx="120" ry="22" fill="#CBB494"/>
  <path d="M118 150 h164 l-16 150 a16 16 0 0 1 -16 14 h-84 a16 16 0 0 1 -16 -14 z" fill="#FBF7F0"/>
  <ellipse cx="200" cy="160" rx="82" ry="20" fill="#C8A57C"/>
  <path d="M200 150 c -8 -14 -34 -10 -34 6 c 0 13 22 21 34 29 c 12 -8 34 -16 34 -29 c 0 -16 -26 -20 -34 -6 z" fill="#FBF7F0"/>
  <path d="M286 175 a44 44 0 0 1 0 88" fill="none" stroke="#FBF7F0" stroke-width="20"/>
</svg>
