<svg xmlns="http://www.w3.org/2000/svg" viewBox="0 0 400 400" role="img" aria-label="스무디">
  <rect width="400" height="400" rx="32" fill="#F3C8D6"/>
  <rect x="232" y="62" width="14" height="210" rx="7" fill="#7B4BC9" transform="rotate(10 239 165)"/>
  <path d="M150 152 h100 l-10 168 a14 14 0 0 1 -14 12 h-52 a14 14 0 0 1 -14 -12 z" fill="#FBE3EC" opacity="0.9"/>
  <path d="M156 176 h88 l-8 144 a12 12 0 0 1 -12 10 h-48 a12 12 0 0 1 -12 -10 z" fill="#E86A9A"/>
  <path d="M150 152 q50 -48 100 0 z" fill="#FFFFFF"/>
  <circle cx="200" cy="120" r="10" fill="#E0457A"/>
  <g fill="#FBE3EC" opacity="0.7"><circle cx="186" cy="232" r="6"/><circle cx="214" cy="262" r="5"/></g>
</svg>
