<svg xmlns="http://www.w3.org/2000/svg" viewBox="0 0 400 400" role="img" aria-label="바닐라라떼">
  <rect width="400" height="400" rx="32" fill="#F3E7CE"/>
  <g fill="none" stroke="#FFFFFF" stroke-width="8" stroke-linecap="round" opacity="0.7">
    <path d="M170 96 q-18 -22 0 -44"/><path d="M205 96 q-18 -22 0 -44"/><path d="M240 96 q-18 -22 0 -44"/>
  </g>
  <ellipse cx="200" cy="318" rx="120" ry="22" fill="#D7BE94"/>
  <path d="M118 150 h164 l-16 150 a16 16 0 0 1 -16 14 h-84 a16 16 0 0 1 -16 -14 z" fill="#FBF7F0"/>
  <ellipse cx="200" cy="160" rx="82" ry="20" fill="#E3C893"/>
  <g stroke="#B9803E" stroke-width="4" fill="none" opacity="0.85"><path d="M158 160 q14 9 28 0 q14 -9 28 0 q14 9 28 0"/></g>
  <path d="M286 175 a44 44 0 0 1 0 88" fill="none" stroke="#FBF7F0" stroke-width="20"/>
</svg>
