<svg xmlns="http://www.w3.org/2000/svg" viewBox="0 0 400 400" role="img" aria-label="유자차">
  <rect width="400" height="400" rx="32" fill="#FFE9C2"/>
  <ellipse cx="200" cy="318" rx="120" ry="22" fill="#000000" opacity="0.10"/>
  <path d="M118 150 h164 l-16 150 a16 16 0 0 1 -16 14 h-84 a16 16 0 0 1 -16 -14 z" fill="#FBF7F0"/>
  <ellipse cx="200" cy="160" rx="82" ry="20" fill="#F2B33C"/>
  <path d="M286 175 a44 44 0 0 1 0 88" fill="none" stroke="#FBF7F0" stroke-width="20"/>
  <line x1="188" y1="156" x2="172" y2="246" stroke="#C9A86A" stroke-width="3"/>
  <rect x="156" y="246" width="32" height="24" rx="4" fill="#EADBB5" stroke="#C9A86A" stroke-width="2"/>
  <g fill="#F59E1B" opacity="0.9"><circle cx="178" cy="158" r="6"/><circle cx="208" cy="152" r="5"/><circle cx="222" cy="166" r="6"/><circle cx="192" cy="168" r="4"/></g>
</svg>
